<svg xmlns="http://www.w3.org/2000/svg" viewBox="160 190 700 650" width="1024" height="1024">
  <path d="M 562 661 L 519 750 L 511 763 L 461 661 L 439 713 L 441 718 L 511 815 L 584 715 Z" fill="#D9E0E4" fill-rule="evenodd"/><path d="M 699 600 L 603 616 L 572 645 L 644 637 Z" fill="#D9E0E4" fill-rule="evenodd"/><path d="M 325 600 L 379 637 L 451 645 L 421 616 Z" fill="#D9E0E4" fill-rule="evenodd"/><path d="M 775 517 L 650 561 L 641 575 L 623 595 L 722 573 Z" fill="#D9E0E4" fill-rule="evenodd"/><path d="M 247 517 L 303 574 L 400 595 L 384 577 L 373 561 Z" fill="#D9E0E4" fill-rule="evenodd"/><path d="M 821 417 L 669 503 L 666 506 L 659 540 L 773 494 L 787 474 Z" fill="#D9E0E4" fill-rule="evenodd"/><path d="M 202 417 L 249 493 L 365 540 L 360 524 L 357 506 L 353 502 Z" fill="#D9E0E4" fill-rule="evenodd"/><path d="M 837 300 L 671 447 L 669 483 L 797 402 Z" fill="#D9E0E4" fill-rule="evenodd"/><path d="M 186 299 L 226 401 L 355 484 L 352 447 Z" fill="#D9E0E4" fill-rule="evenodd"/><path d="M 235 309 L 370 440 L 374 502 L 380 531 L 385 545 L 395 563 L 410 581 L 467 636 L 512 724 L 554 639 L 617 577 L 627 565 L 639 544 L 644 530 L 650 500 L 653 465 L 653 441 L 789 308 L 819 209 L 605 429 L 613 446 L 618 473 L 617 500 L 611 524 L 600 546 L 592 557 L 534 615 L 512 670 L 487 612 L 431 557 L 423 546 L 413 526 L 406 499 L 405 472 L 409 451 L 418 428 L 205 209 Z" fill="#D9E0E4" fill-rule="evenodd"/>
  <path d="M 511 472 L 512 473 L 510 474 L 483 534 L 511 603 L 520 585 L 540 535 Z" fill="#D1AD55" fill-rule="evenodd"/>
  <path d="M 511 340 L 474 415 L 473 463 L 472 464 L 470 462 L 453 424 L 429 483 L 443 536 L 480 573 L 486 577 L 465 526 L 510 427 L 512 426 L 558 526 L 555 537 L 537 579 L 581 535 L 594 485 L 594 479 L 570 425 L 567 428 L 552 463 L 550 463 L 550 418 Z" fill="#D1AD55" fill-rule="evenodd"/>
</svg>
